<?xml version="1.0" encoding="UTF-8" standalone="no"?>
<svg width="29px" height="33px" viewBox="0 0 29 33" version="1.1" xmlns="http://www.w3.org/2000/svg" xmlns:xlink="http://www.w3.org/1999/xlink">
    <!-- Generator: Sketch 40.3 (33839) - http://www.bohemiancoding.com/sketch -->
    <title>arrow-down</title>
    <desc>Created with Sketch.</desc>
    <defs></defs>
    <g id="Symbols" stroke="none" stroke-width="1" fill="none" fill-rule="evenodd">
        <g id="arrow-down" fill="#1D1D1B">
            <path d="M27.684,19.423 C28.499,18.61 28.499,17.287 27.684,16.474 C26.872,15.662 25.546,15.662 24.732,16.474 L16.431,24.775 L16.431,2.853 C16.431,1.706 15.497,0.766 14.343,0.766 C13.191,0.766 12.256,1.704 12.256,2.853 L12.256,24.775 L3.958,16.474 C3.142,15.662 1.812,15.662 1.006,16.474 C0.599,16.88 0.394,17.413 0.394,17.953 C0.394,18.483 0.599,19.016 1.006,19.432 L14.343,32.773 L27.684,19.423 L27.684,19.423 Z"></path>
        </g>
    </g>
</svg>