<?xml version="1.0" encoding="UTF-8" standalone="no"?>
<svg width="33px" height="29px" viewBox="0 0 33 29" version="1.1" xmlns="http://www.w3.org/2000/svg" xmlns:xlink="http://www.w3.org/1999/xlink">
    <!-- Generator: Sketch 40.3 (33839) - http://www.bohemiancoding.com/sketch -->
    <title>arrow-right</title>
    <desc>Created with Sketch.</desc>
    <defs></defs>
    <g id="Symbols" stroke="none" stroke-width="1" fill="none" fill-rule="evenodd">
        <g id="arrow-right" fill="#1D1D1B">
            <path d="M18.881,1.425 C18.066,0.613 16.745,0.613 15.93,1.425 C15.115,2.238 15.115,3.565 15.93,4.377 L24.231,12.68 L2.308,12.68 C1.156,12.68 0.221,13.618 0.221,14.767 C0.221,15.917 1.156,16.855 2.308,16.855 L24.23,16.855 L15.929,25.158 C15.114,25.97 15.114,27.296 15.929,28.105 C16.337,28.513 16.87,28.714 17.405,28.714 C17.94,28.714 18.473,28.513 18.884,28.105 L32.225,14.767 L18.881,1.425 L18.881,1.425 Z"></path>
        </g>
    </g>
</svg>