<?xml version="1.0" encoding="UTF-8" standalone="no"?>
<svg width="33px" height="29px" viewBox="0 0 33 29" version="1.1" xmlns="http://www.w3.org/2000/svg" xmlns:xlink="http://www.w3.org/1999/xlink">
    <!-- Generator: Sketch 40.3 (33839) - http://www.bohemiancoding.com/sketch -->
    <title>arrow-left</title>
    <desc>Created with Sketch.</desc>
    <defs></defs>
    <g id="Symbols" stroke="none" stroke-width="1" fill="none" fill-rule="evenodd">
        <g id="arrow-left" fill="#1D1D1B">
            <path d="M14.22,28.102 C15.032,28.915 16.356,28.915 17.171,28.102 C17.983,27.29 17.983,25.962 17.171,25.15 L8.87,16.849 L30.787,16.849 C31.933,16.849 32.879,15.913 32.879,14.762 C32.879,13.614 31.941,12.672 30.787,12.672 L8.87,12.672 L17.171,4.373 C17.983,3.561 17.983,2.235 17.171,1.422 C16.763,1.016 16.23,0.813 15.692,0.813 C15.154,0.813 14.63,1.016 14.216,1.422 L0.876,14.762 L14.22,28.102 L14.22,28.102 Z"></path>
        </g>
    </g>
</svg>