<?xml version="1.0" encoding="UTF-8" standalone="no"?>
<svg width="33px" height="33px" viewBox="0 0 33 33" version="1.1" xmlns="http://www.w3.org/2000/svg" xmlns:xlink="http://www.w3.org/1999/xlink">
    <!-- Generator: Sketch 40.3 (33839) - http://www.bohemiancoding.com/sketch -->
    <title>calendar</title>
    <desc>Created with Sketch.</desc>
    <defs></defs>
    <g id="Symbols" stroke="none" stroke-width="1" fill="none" fill-rule="evenodd">
        <g id="calendar" fill="#1D1D1B">
            <g>
                <path d="M29.101,0.353 L3.101,0.353 C1.444,0.353 0.101,1.698 0.101,3.353 L0.101,29.353 C0.101,31.005 1.444,32.353 3.101,32.353 L29.101,32.353 C30.758,32.353 32.101,31.005 32.101,29.353 L32.101,3.353 C32.101,1.696 30.759,0.353 29.101,0.353 L29.101,0.353 Z M3.101,29.353 L3.101,11.353 L29.101,11.353 L29.101,29.353 L3.101,29.353 L3.101,29.353 Z" id="Shape"></path>
                <rect id="Rectangle-path" x="5.156" y="13.353" width="6" height="6"></rect>
                <rect id="Rectangle-path" x="13.156" y="13.353" width="6" height="6"></rect>
                <rect id="Rectangle-path" x="21.156" y="13.353" width="6" height="6"></rect>
                <rect id="Rectangle-path" x="5.156" y="21.353" width="6" height="6"></rect>
                <rect id="Rectangle-path" x="13.156" y="21.353" width="6" height="6"></rect>
                <rect id="Rectangle-path" x="21.156" y="21.353" width="6" height="6"></rect>
            </g>
        </g>
    </g>
</svg>