<?xml version="1.0" encoding="UTF-8" standalone="no"?>
<svg width="42px" height="26px" viewBox="0 0 42 26" version="1.1" xmlns="http://www.w3.org/2000/svg" xmlns:xlink="http://www.w3.org/1999/xlink">
    <!-- Generator: Sketch 40.3 (33839) - http://www.bohemiancoding.com/sketch -->
    <title>cloud-up</title>
    <desc>Created with Sketch.</desc>
    <defs></defs>
    <g id="Symbols" stroke="none" stroke-width="1" fill="none" fill-rule="evenodd">
        <g id="cloud-up" fill="#1D1D1B">
            <path d="M41.335,16.065 C39.925,12.399 35.808,10.573 32.14,11.987 C32.07,12.014 31.994,12.049 31.929,12.073 C31.95,11.766 31.97,11.456 31.97,11.141 C31.97,5.399 27.316,0.745 21.574,0.745 C17.367,0.745 13.745,3.244 12.107,6.843 C10.378,6.489 8.545,6.614 6.779,7.286 C1.865,9.182 -0.576,14.703 1.312,19.616 C2.771,23.402 6.376,25.722 10.208,25.722 L10.208,25.743 L17.888,25.743 L17.888,20.014 L15.583,20.014 C14.729,20.014 14.395,19.452 14.854,18.768 L20.683,9.358 C20.683,9.358 20.912,9.023 21.245,9.023 C21.578,9.023 21.807,9.358 21.807,9.358 L27.637,18.768 C28.082,19.454 27.751,20.014 26.904,20.014 L24.604,20.014 L24.604,25.743 L34.772,25.743 C35.601,25.735 36.443,25.581 37.26,25.264 C40.922,23.852 42.741,19.734 41.335,16.065 L41.335,16.065 Z"></path>
        </g>
    </g>
</svg>