<?xml version="1.0" encoding="UTF-8" standalone="no"?>
<svg width="42px" height="26px" viewBox="0 0 42 26" version="1.1" xmlns="http://www.w3.org/2000/svg" xmlns:xlink="http://www.w3.org/1999/xlink">
    <!-- Generator: Sketch 40.3 (33839) - http://www.bohemiancoding.com/sketch -->
    <title>cloud</title>
    <desc>Created with Sketch.</desc>
    <defs></defs>
    <g id="Symbols" stroke="none" stroke-width="1" fill="none" fill-rule="evenodd">
        <g id="cloud" fill="#1D1D1B">
            <path d="M41.448,16.066 C40.035,12.397 35.927,10.573 32.26,11.987 C32.188,12.015 32.114,12.049 32.049,12.072 C32.07,11.765 32.082,11.458 32.082,11.141 C32.082,5.401 27.436,0.745 21.686,0.745 C17.482,0.745 13.857,3.243 12.221,6.843 C10.492,6.489 8.657,6.614 6.891,7.285 C1.978,9.181 -0.471,14.703 1.425,19.616 C2.883,23.403 6.487,25.722 10.321,25.724 L10.321,25.744 L34.883,25.744 L34.883,25.744 C35.711,25.736 36.554,25.583 37.362,25.265 C41.041,23.852 42.865,19.733 41.448,16.066 L41.448,16.066 Z"></path>
        </g>
    </g>
</svg>