<?xml version="1.0" encoding="UTF-8" standalone="no"?>
<svg width="42px" height="26px" viewBox="0 0 42 26" version="1.1" xmlns="http://www.w3.org/2000/svg" xmlns:xlink="http://www.w3.org/1999/xlink">
    <!-- Generator: Sketch 40.3 (33839) - http://www.bohemiancoding.com/sketch -->
    <title>cloud-down</title>
    <desc>Created with Sketch.</desc>
    <defs></defs>
    <g id="Symbols" stroke="none" stroke-width="1" fill="none" fill-rule="evenodd">
        <g id="cloud-down" fill="#1D1D1B">
            <path d="M41.323,16.065 C39.911,12.399 35.802,10.573 32.129,11.987 C32.067,12.014 31.983,12.049 31.915,12.073 C31.938,11.766 31.956,11.456 31.956,11.141 C31.956,5.399 27.31,0.745 21.56,0.745 C17.354,0.745 13.732,3.244 12.094,6.843 C10.365,6.489 8.529,6.614 6.765,7.286 C1.851,9.182 -0.597,14.703 1.298,19.616 C2.758,23.402 6.36,25.722 10.194,25.722 L10.194,25.743 L34.756,25.743 C35.572,25.735 36.426,25.581 37.235,25.264 C40.916,23.852 42.74,19.734 41.323,16.065 L41.323,16.065 Z M26.224,13.065 L21.596,20.536 C21.596,20.536 21.408,20.807 21.148,20.807 C20.888,20.807 20.701,20.536 20.701,20.536 L16.072,13.065 C15.718,12.521 15.978,12.075 16.656,12.075 L18.482,12.075 L18.482,8.549 L23.816,8.549 L23.816,12.075 L25.641,12.075 C26.32,12.074 26.573,12.521 26.224,13.065 L26.224,13.065 Z"></path>
        </g>
    </g>
</svg>