<?xml version="1.0" encoding="UTF-8" standalone="no"?>
<svg width="33px" height="33px" viewBox="0 0 33 33" version="1.1" xmlns="http://www.w3.org/2000/svg" xmlns:xlink="http://www.w3.org/1999/xlink">
    <!-- Generator: Sketch 40.3 (33839) - http://www.bohemiancoding.com/sketch -->
    <title>dribbble</title>
    <desc>Created with Sketch.</desc>
    <defs></defs>
    <g id="Symbols" stroke="none" stroke-width="1" fill="none" fill-rule="evenodd">
        <g id="dribbble" fill="#1D1D1B">
            <path d="M16.177,0.455 C7.316,0.455 0.227,7.644 0.227,16.406 C0.227,25.262 7.316,32.455 16.177,32.455 C25.038,32.455 32.227,25.267 32.227,16.406 C32.226,7.649 25.038,0.455 16.177,0.455 L16.177,0.455 Z M29.567,16.408 C27.796,16.012 26.129,15.72 24.447,15.72 C23.07,15.72 21.593,15.917 20.127,16.212 C19.819,15.524 19.524,14.733 19.231,14.046 C21.99,12.775 24.752,10.99 27.21,8.927 C28.682,11.192 29.567,13.75 29.567,16.408 L29.567,16.408 Z M16.177,3.117 C19.723,3.117 22.972,4.494 25.433,6.857 C23.167,8.828 20.707,10.402 18.048,11.586 C16.569,8.827 14.8,6.17 12.733,3.608 C13.913,3.317 14.995,3.117 16.177,3.117 L16.177,3.117 Z M10.072,4.594 C12.238,7.156 14.109,9.823 15.593,12.573 C12.048,13.844 8.405,14.444 4.762,14.444 L2.991,14.444 C3.674,10.205 6.332,6.565 10.072,4.594 L10.072,4.594 Z M2.886,17.094 C3.574,17.094 4.167,17.198 4.756,17.198 C8.793,17.198 12.829,16.413 16.769,15.032 C16.966,15.624 17.261,16.306 17.557,16.903 C13.03,18.474 9.088,21.424 6.431,25.465 C4.263,23.201 2.983,20.246 2.886,17.094 L2.886,17.094 Z M16.177,29.8 C13.421,29.8 10.763,28.91 8.4,27.339 C10.863,23.597 14.308,20.839 18.444,19.462 C19.428,22.515 20.131,25.763 20.423,29.108 C19.032,29.604 17.653,29.8 16.177,29.8 L16.177,29.8 Z M22.972,27.927 C22.578,24.781 21.989,21.737 21.002,18.781 C22.184,18.584 23.356,18.486 24.44,18.486 C26.015,18.486 27.589,18.674 29.263,19.076 C28.484,22.807 26.22,26.055 22.972,27.927 L22.972,27.927 Z"></path>
        </g>
    </g>
</svg>