<?xml version="1.0" encoding="UTF-8" standalone="no"?>
<svg width="33px" height="33px" viewBox="0 0 33 33" version="1.1" xmlns="http://www.w3.org/2000/svg" xmlns:xlink="http://www.w3.org/1999/xlink">
    <!-- Generator: Sketch 40.3 (33839) - http://www.bohemiancoding.com/sketch -->
    <title>github</title>
    <desc>Created with Sketch.</desc>
    <defs></defs>
    <g id="Symbols" stroke="none" stroke-width="1" fill="none" fill-rule="evenodd">
        <g id="github" fill="#1D1D1B">
            <path d="M29.774,16.455 C29.774,12.851 28.253,9.394 25.878,7.017 C23.503,4.636 20.045,3.121 16.44,3.121 C12.836,3.121 9.398,4.642 7.023,7.017 C4.648,9.392 3.107,12.851 3.107,16.455 C3.107,22.267 6.919,27.434 12.44,29.164 L12.44,25.643 C11.69,25.747 11.211,25.789 11.002,25.789 C9.481,25.789 8.419,25.101 7.814,23.705 C7.606,23.184 7.356,22.75 7.064,22.394 C7.002,22.312 6.856,22.187 6.626,21.998 C6.396,21.81 6.209,21.644 6.043,21.498 C5.855,21.352 5.772,21.227 5.772,21.164 C5.772,20.998 5.96,20.914 6.356,20.914 C7.168,20.914 7.794,21.373 8.231,21.935 C8.647,22.512 9.043,23.137 9.731,23.539 C10.064,23.748 10.46,23.851 10.897,23.851 C11.481,23.851 12.043,23.747 12.585,23.553 C12.814,22.762 13.252,22.137 13.897,21.699 C9.293,21.261 7.106,19.637 7.106,15.283 C7.106,13.637 7.606,12.262 8.627,11.158 C8.439,10.574 8.335,9.99 8.335,9.408 C8.335,8.596 8.523,7.846 8.897,7.137 C10.481,7.137 11.522,7.658 13.106,8.81 C14.168,8.56 15.335,8.435 16.627,8.435 C17.731,8.435 18.794,8.539 19.815,8.762 C21.398,7.658 22.419,7.137 23.982,7.137 C24.357,7.846 24.544,8.596 24.544,9.408 C24.544,10.012 24.44,10.574 24.252,11.137 C25.273,12.283 25.773,13.658 25.773,15.283 C25.773,19.637 23.585,21.304 19.002,21.721 C19.96,22.367 20.44,23.283 20.44,24.45 L20.44,29.159 C25.962,27.44 29.774,22.271 29.774,16.455 L29.774,16.455 Z M30.296,8.414 C31.734,10.873 32.442,13.56 32.442,16.455 C32.442,22.267 29.38,27.455 24.484,30.309 C22.025,31.747 19.338,32.455 16.442,32.455 C10.63,32.455 5.442,29.394 2.588,24.476 C1.15,22.038 0.442,19.351 0.442,16.455 C0.442,10.644 3.504,5.455 8.421,2.601 C10.859,1.163 13.546,0.455 16.442,0.455 C22.254,0.455 27.441,3.521 30.296,8.414 L30.296,8.414 Z"></path>
        </g>
    </g>
</svg>