<?xml version="1.0" encoding="UTF-8" standalone="no"?>
<svg width="33px" height="33px" viewBox="0 0 33 33" version="1.1" xmlns="http://www.w3.org/2000/svg" xmlns:xlink="http://www.w3.org/1999/xlink">
    <!-- Generator: Sketch 40.3 (33839) - http://www.bohemiancoding.com/sketch -->
    <title>gplus</title>
    <desc>Created with Sketch.</desc>
    <defs></defs>
    <g id="Symbols" stroke="none" stroke-width="1" fill="none" fill-rule="evenodd">
        <g id="gplus" fill="#1D1D1B">
            <path d="M17.277,26.128 C17.277,25.591 17.142,25.066 17.007,24.649 C16.945,24.431 16.821,24.216 16.681,23.997 C16.507,23.768 16.369,23.571 16.277,23.399 C16.048,23.087 15.468,22.571 15.238,22.337 C14.988,22.121 14.238,21.566 14.027,21.41 C13.798,21.261 12.949,20.66 12.798,20.557 C12.584,20.536 12.259,20.523 11.834,20.523 C10.438,20.523 9.151,20.669 7.72,21.135 C6.279,21.596 5.199,22.241 4.509,23.457 C4.155,24.057 3.988,24.742 3.988,25.519 C3.988,27.269 4.988,28.696 6.468,29.457 C7.931,30.242 9.572,30.635 11.218,30.635 C12.738,30.635 14.103,30.323 15.316,29.635 C16.527,28.973 17.277,27.744 17.277,26.128 L17.277,26.128 Z M14.971,9.552 C14.971,8.015 14.53,6.203 13.76,4.591 C12.971,2.979 11.53,1.802 9.836,1.802 C7.44,1.802 6.086,3.841 6.086,6.302 C6.086,7.515 6.375,8.878 6.982,10.203 C7.597,11.527 8.386,12.628 9.56,13.302 C10.159,13.628 10.771,13.802 11.425,13.802 C13.906,13.802 14.971,12.112 14.971,9.552 L14.971,9.552 Z M12.448,0.414 L20.852,0.414 L18.256,1.935 L15.652,1.935 C17.477,3.081 18.516,5.364 18.516,7.614 C18.516,9.51 17.842,11.01 16.995,11.923 C16.57,12.364 16.145,12.786 15.724,13.152 C14.878,13.923 14.203,14.711 14.203,15.631 C14.203,16.306 14.676,16.943 15.353,17.531 C15.678,17.82 16.065,18.131 16.467,18.455 C17.295,19.095 18.141,19.882 18.825,20.781 C19.506,21.705 19.967,23.01 19.967,24.469 C19.967,28.573 16.065,32.407 9.196,32.407 C7.675,32.407 6.136,32.178 4.558,31.556 C2.985,30.952 1.751,30.128 0.985,28.735 C0.597,28.042 0.413,27.267 0.413,26.407 C0.413,24.845 1.343,22.87 2.975,21.678 C4.611,20.49 6.84,19.928 8.746,19.616 C9.684,19.482 10.647,19.387 11.642,19.366 C10.816,18.304 10.412,17.345 10.412,16.505 C10.412,16.194 10.474,15.891 10.558,15.68 C10.626,15.469 10.787,15.074 10.841,14.861 C10.32,14.92 9.877,14.959 9.487,14.959 C5.661,14.959 2.526,12.134 2.526,8.349 C2.526,4.748 5.297,1.599 8.852,0.81 C10.066,0.552 11.26,0.414 12.448,0.414 L12.448,0.414 Z M27.51,5.341 L32.434,5.341 L32.434,7.802 L27.51,7.802 L27.51,12.729 L25.049,12.729 L25.049,7.802 L20.125,7.802 L20.125,5.341 L25.049,5.341 L25.049,0.416 L27.51,0.416 L27.51,5.341 L27.51,5.341 Z"></path>
        </g>
    </g>
</svg>