<?xml version="1.0" encoding="UTF-8" standalone="no"?>
<svg width="33px" height="33px" viewBox="0 0 33 33" version="1.1" xmlns="http://www.w3.org/2000/svg" xmlns:xlink="http://www.w3.org/1999/xlink">
    <!-- Generator: Sketch 40.3 (33839) - http://www.bohemiancoding.com/sketch -->
    <title>help</title>
    <desc>Created with Sketch.</desc>
    <defs></defs>
    <g id="Symbols" stroke="none" stroke-width="1" fill="none" fill-rule="evenodd">
        <g id="help" fill="#1D1D1B">
            <path d="M16.781,0.378 C7.929,0.378 0.781,7.524 0.781,16.378 C0.781,25.205 7.929,32.378 16.781,32.378 C25.611,32.378 32.781,25.205 32.781,16.378 C32.781,7.526 25.613,0.378 16.781,0.378 L16.781,0.378 Z M16.781,28.378 C10.165,28.378 4.781,22.992 4.781,16.378 C4.781,9.761 10.165,4.378 16.781,4.378 C23.398,4.378 28.781,9.761 28.781,16.378 C28.781,22.992 23.4,28.378 16.781,28.378 L16.781,28.378 Z" id="Shape"></path>
            <path d="M20.888,16.24 C20.153,16.871 18.992,17.348 18.683,17.503 C18.369,17.671 18.369,17.815 18.369,18.234 L18.369,18.755 L14.388,18.755 L14.388,17.493 C14.388,16.551 14.492,15.965 15.534,15.389 L16.899,14.66 C17.423,14.365 18.053,14.138 18.053,13.609 C18.053,13.088 17.529,12.837 16.367,12.837 C15.219,12.837 14.055,13.298 13.221,13.82 L12.171,10.354 C12.692,10.042 14.271,9.09 17.206,9.09 C20.144,9.09 22.242,10.875 22.242,13.08 C22.25,14.878 21.615,15.612 20.888,16.24 L20.888,16.24 Z M16.365,24.031 C14.841,24.031 13.783,23.232 13.783,21.76 C13.783,20.288 14.841,19.471 16.365,19.471 C17.885,19.471 18.927,20.286 18.927,21.76 C18.935,23.233 17.885,24.031 16.365,24.031 L16.365,24.031 Z" id="Shape"></path>
        </g>
    </g>
</svg>