<?xml version="1.0" encoding="UTF-8" standalone="no"?>
<svg width="33px" height="26px" viewBox="0 0 33 26" version="1.1" xmlns="http://www.w3.org/2000/svg" xmlns:xlink="http://www.w3.org/1999/xlink">
    <!-- Generator: Sketch 40.3 (33839) - http://www.bohemiancoding.com/sketch -->
    <title>list</title>
    <desc>Created with Sketch.</desc>
    <defs></defs>
    <g id="Symbols" stroke="none" stroke-width="1" fill="none" fill-rule="evenodd">
        <g id="list" fill="#1D1D1B">
            <path d="M11.4,5.865 L30.476,5.865 C31.831,5.865 32.937,4.761 32.937,3.404 C32.937,2.047 31.833,0.943 30.476,0.943 L11.4,0.943 C10.046,0.943 8.937,2.046 8.937,3.404 C8.937,4.763 10.037,5.865 11.4,5.865 L11.4,5.865 Z" id="Shape"></path>
            <path d="M30.476,10.787 L11.4,10.787 C10.046,10.787 8.937,11.891 8.937,13.248 C8.937,14.607 10.041,15.713 11.4,15.713 L30.476,15.713 C31.831,15.713 32.937,14.609 32.937,13.248 C32.937,11.892 31.836,10.787 30.476,10.787 L30.476,10.787 Z" id="Shape"></path>
            <path d="M30.476,20.636 L11.4,20.636 C10.046,20.636 8.937,21.74 8.937,23.098 C8.937,24.452 10.041,25.561 11.4,25.561 L30.476,25.561 C31.831,25.561 32.937,24.457 32.937,23.098 C32.937,21.739 31.836,20.636 30.476,20.636 L30.476,20.636 Z" id="Shape"></path>
            <path d="M4.476,0.944 L3.4,0.944 C2.046,0.944 0.937,2.047 0.937,3.405 C0.937,4.763 2.041,5.867 3.4,5.867 L4.476,5.867 C5.831,5.867 6.937,4.763 6.937,3.405 C6.937,2.045 5.836,0.944 4.476,0.944 L4.476,0.944 Z" id="Shape"></path>
            <path d="M4.476,10.787 L3.4,10.787 C2.046,10.787 0.937,11.891 0.937,13.248 C0.937,14.607 2.041,15.713 3.4,15.713 L4.476,15.713 C5.831,15.713 6.937,14.609 6.937,13.248 C6.937,11.892 5.836,10.787 4.476,10.787 L4.476,10.787 Z" id="Shape"></path>
            <path d="M4.476,20.636 L3.4,20.636 C2.046,20.636 0.937,21.74 0.937,23.098 C0.937,24.452 2.041,25.561 3.4,25.561 L4.476,25.561 C5.831,25.561 6.937,24.457 6.937,23.098 C6.937,21.739 5.836,20.636 4.476,20.636 L4.476,20.636 Z" id="Shape"></path>
        </g>
    </g>
</svg>