<?xml version="1.0" encoding="UTF-8" standalone="no"?>
<svg width="33px" height="25px" viewBox="0 0 33 25" version="1.1" xmlns="http://www.w3.org/2000/svg" xmlns:xlink="http://www.w3.org/1999/xlink">
    <!-- Generator: Sketch 40.3 (33839) - http://www.bohemiancoding.com/sketch -->
    <title>mail</title>
    <desc>Created with Sketch.</desc>
    <defs></defs>
    <g id="Symbols" stroke="none" stroke-width="1" fill="none" fill-rule="evenodd">
        <g id="mail" fill="#1D1D1B">
            <g id="Shape">
                <path d="M16.94,14.019 L30.251,0.469 C30.024,0.407 29.788,0.357 29.54,0.357 L2.599,0.357 C2.351,0.357 2.119,0.407 1.886,0.469 L15.198,14.019 C15.656,14.492 16.473,14.492 16.94,14.019 L16.94,14.019 Z"></path>
                <path d="M18.758,15.868 C18.029,16.597 17.07,17.011 16.066,17.011 C15.047,17.011 14.087,16.608 13.37,15.868 L0.122,2.389 C0.096,2.563 0.066,2.743 0.066,2.922 L0.066,21.779 C0.066,23.197 1.198,24.349 2.587,24.349 L29.525,24.349 C30.921,24.349 32.05,23.197 32.05,21.779 L32.05,2.923 C32.05,2.735 32.029,2.564 31.988,2.39 L18.758,15.868 L18.758,15.868 Z"></path>
            </g>
        </g>
    </g>
</svg>