<?xml version="1.0" encoding="UTF-8" standalone="no"?>
<svg width="25px" height="33px" viewBox="0 0 25 33" version="1.1" xmlns="http://www.w3.org/2000/svg" xmlns:xlink="http://www.w3.org/1999/xlink">
    <!-- Generator: Sketch 40.3 (33839) - http://www.bohemiancoding.com/sketch -->
    <title>marker</title>
    <desc>Created with Sketch.</desc>
    <defs></defs>
    <g id="Symbols" stroke="none" stroke-width="1" fill="none" fill-rule="evenodd">
        <g id="marker" fill="#1D1D1B">
            <path d="M24.074,12.865 C24.074,11.258 23.762,9.691 23.136,8.219 C22.532,6.797 21.675,5.52 20.575,4.425 C19.475,3.323 18.206,2.469 16.778,1.863 C15.299,1.239 13.745,0.925 12.132,0.925 C10.528,0.925 8.958,1.237 7.486,1.863 C6.063,2.467 4.796,3.325 3.692,4.425 C2.592,5.52 1.738,6.797 1.13,8.219 C0.509,9.694 0.192,11.256 0.192,12.865 C0.192,14.474 0.504,16.039 1.13,17.511 C1.468,18.308 1.886,19.058 2.377,19.757 L2.377,19.757 L10.261,31.758 C11.289,33.315 12.967,33.315 13.994,31.758 L21.875,19.757 L21.875,19.757 C22.369,19.058 22.789,18.308 23.125,17.511 C23.763,16.039 24.074,14.478 24.074,12.865 L24.074,12.865 Z M15.281,16.014 C14.441,16.854 13.326,17.317 12.135,17.317 C10.947,17.317 9.823,16.854 8.989,16.014 C8.151,15.17 7.688,14.058 7.688,12.868 C7.688,11.68 8.151,10.563 8.989,9.723 C9.837,8.883 10.946,8.413 12.135,8.413 C13.323,8.413 14.445,8.883 15.281,9.723 C16.125,10.563 16.59,11.679 16.59,12.868 C16.59,14.058 16.125,15.171 15.281,16.014 L15.281,16.014 Z"></path>
        </g>
    </g>
</svg>