<?xml version="1.0" encoding="UTF-8" standalone="no"?>
<svg width="33px" height="26px" viewBox="0 0 33 26" version="1.1" xmlns="http://www.w3.org/2000/svg" xmlns:xlink="http://www.w3.org/1999/xlink">
    <!-- Generator: Sketch 40.3 (33839) - http://www.bohemiancoding.com/sketch -->
    <title>menu</title>
    <desc>Created with Sketch.</desc>
    <defs></defs>
    <g id="Symbols" stroke="none" stroke-width="1" fill="none" fill-rule="evenodd">
        <g id="menu" fill="#1D1D1B">
            <path d="M32.533,3.405 C32.533,4.763 31.429,5.867 30.064,5.867 L2.999,5.867 C1.644,5.867 0.534,4.763 0.534,3.405 L0.534,3.405 C0.534,2.047 1.638,0.944 2.999,0.944 L30.064,0.944 C31.434,0.944 32.533,2.045 32.533,3.405 L32.533,3.405 L32.533,3.405 Z" id="Shape"></path>
            <path d="M32.533,13.248 C32.533,14.607 31.429,15.713 30.064,15.713 L2.999,15.713 C1.644,15.713 0.534,14.609 0.534,13.248 L0.534,13.248 C0.534,11.894 1.638,10.787 2.999,10.787 L30.064,10.787 C31.434,10.787 32.533,11.892 32.533,13.248 L32.533,13.248 L32.533,13.248 Z" id="Shape"></path>
            <path d="M32.533,23.098 C32.533,24.452 31.429,25.561 30.064,25.561 L2.999,25.561 C1.644,25.561 0.534,24.457 0.534,23.098 L0.534,23.098 C0.534,21.74 1.638,20.636 2.999,20.636 L30.064,20.636 C31.434,20.636 32.533,21.738 32.533,23.098 L32.533,23.098 L32.533,23.098 Z" id="Shape"></path>
        </g>
    </g>
</svg>