<?xml version="1.0" encoding="UTF-8" standalone="no"?>
<svg width="32px" height="32px" viewBox="0 0 32 32" version="1.1" xmlns="http://www.w3.org/2000/svg" xmlns:xlink="http://www.w3.org/1999/xlink">
    <!-- Generator: Sketch 40.3 (33839) - http://www.bohemiancoding.com/sketch -->
    <title>search</title>
    <desc>Created with Sketch.</desc>
    <defs></defs>
    <g id="Symbols" stroke="none" stroke-width="1" fill="none" fill-rule="evenodd">
        <g id="search" fill="#1D1D1B">
            <path d="M30.067,24.628 L24.065,18.628 C23.573,18.136 22.983,17.816 22.364,17.615 C24.555,13.261 23.843,7.827 20.208,4.195 C17.944,1.924 14.979,0.798 12.02,0.798 C9.041,0.798 6.079,1.935 3.813,4.195 C-0.718,8.724 -0.718,16.072 3.813,20.603 C6.079,22.871 9.042,23.998 12.02,23.998 C13.791,23.998 15.577,23.583 17.204,22.769 C17.397,23.396 17.725,23.988 18.225,24.484 L24.229,30.484 C25.041,31.296 26.093,31.697 27.162,31.697 C28.224,31.697 29.285,31.296 30.1,30.484 C31.686,28.869 31.686,26.244 30.067,24.628 L30.067,24.628 Z M6.531,17.871 C3.515,14.853 3.515,9.947 6.531,6.933 C7.993,5.472 9.935,4.663 12.01,4.663 C14.072,4.663 16.016,5.47 17.477,6.933 C18.938,8.398 19.745,10.335 19.745,12.408 C19.745,14.47 18.938,16.418 17.475,17.884 C16.016,19.343 14.075,20.152 12.008,20.152 C9.938,20.138 7.99,19.335 6.531,17.871 L6.531,17.871 Z"></path>
        </g>
    </g>
</svg>