<?xml version="1.0" encoding="UTF-8" standalone="no"?>
<svg width="33px" height="30px" viewBox="0 0 33 30" version="1.1" xmlns="http://www.w3.org/2000/svg" xmlns:xlink="http://www.w3.org/1999/xlink">
    <!-- Generator: Sketch 40.3 (33839) - http://www.bohemiancoding.com/sketch -->
    <title>send</title>
    <desc>Created with Sketch.</desc>
    <defs></defs>
    <g id="Symbols" stroke="none" stroke-width="1" fill="none" fill-rule="evenodd">
        <g id="send" fill="#1D1D1B">
            <path d="M20.698,6.689 C20.93,6.673 21.157,6.656 21.386,6.652 L21.386,3.771 C21.386,2.738 21.965,2.337 22.671,2.878 L32.357,9.933 C32.357,9.933 32.708,10.214 32.708,10.613 C32.708,11.009 32.357,11.296 32.357,11.296 L22.671,18.347 C21.965,18.888 21.386,18.49 21.386,17.451 L21.386,13.933 C20.571,13.826 19.735,13.812 18.884,13.882 C14.644,14.246 11.057,16.79 9.017,20.403 C8.906,13.316 13.987,7.267 20.698,6.689 L20.698,6.689 Z" id="Shape"></path>
            <path d="M30.023,19.156 C28.76,19.156 27.744,20.177 27.744,21.437 L27.744,23.49 C27.744,24.152 27.206,24.687 26.548,24.687 L6.464,24.687 C5.813,24.687 5.275,24.152 5.275,23.49 L5.275,12.617 L5.275,12.617 L5.275,6.73 C5.275,6.072 5.812,5.535 6.464,5.535 L10.902,5.535 C12.163,5.535 13.183,4.517 13.183,3.257 C13.183,1.999 12.162,0.978 10.902,0.978 L6.464,0.978 C3.286,0.978 0.708,3.562 0.708,6.734 L0.708,8.966 L0.708,8.97 L0.708,23.491 C0.708,26.663 3.288,29.249 6.464,29.249 L26.548,29.249 C29.732,29.249 32.312,26.665 32.312,23.491 L32.312,21.438 C32.301,20.177 31.281,19.156 30.023,19.156 L30.023,19.156 Z" id="Shape"></path>
        </g>
    </g>
</svg>