<?xml version="1.0" encoding="UTF-8" standalone="no"?>
<svg width="33px" height="33px" viewBox="0 0 33 33" version="1.1" xmlns="http://www.w3.org/2000/svg" xmlns:xlink="http://www.w3.org/1999/xlink">
    <!-- Generator: Sketch 40.3 (33839) - http://www.bohemiancoding.com/sketch -->
    <title>spinner</title>
    <desc>Created with Sketch.</desc>
    <defs></defs>
    <g id="Symbols" stroke="none" stroke-width="1" fill="none" fill-rule="evenodd">
        <g id="spinner" fill="#1D1D1B">
            <g id="Shape">
                <path d="M25.147,18.978 L29.541,18.978 C30.896,18.978 32.003,17.874 32.003,16.517 C32.003,15.16 30.899,14.056 29.541,14.056 L25.147,14.056 C23.793,14.056 22.684,15.159 22.684,16.517 C22.684,17.876 23.785,18.978 25.147,18.978 L25.147,18.978 Z"></path>
                <path d="M24.208,11.791 L27.314,8.685 C28.273,7.727 28.273,6.164 27.314,5.204 C26.354,4.245 24.793,4.245 23.835,5.204 L20.729,8.31 C19.772,9.267 19.767,10.831 20.727,11.791 C21.688,12.753 23.245,12.753 24.208,11.791 L24.208,11.791 Z"></path>
                <path d="M18.463,7.372 L18.463,2.979 C18.464,1.623 17.359,0.518 16.001,0.518 C14.643,0.518 13.539,1.622 13.539,2.979 L13.539,7.373 C13.539,8.727 14.643,9.836 16.001,9.836 C17.361,9.834 18.463,8.734 18.463,7.372 L18.463,7.372 Z"></path>
                <path d="M11.274,8.311 L8.169,5.205 C7.21,4.245 5.648,4.245 4.688,5.205 C3.728,6.165 3.728,7.726 4.688,8.685 L7.794,11.792 C8.75,12.749 10.315,12.753 11.275,11.793 C12.237,10.831 12.238,9.274 11.274,8.311 L11.274,8.311 Z"></path>
                <path d="M6.856,14.058 L2.463,14.058 C1.108,14.057 0.002,15.162 0,16.52 C0,17.877 1.104,18.981 2.462,18.981 L6.856,18.981 C8.21,18.981 9.32,17.877 9.319,16.52 C9.319,15.159 8.219,14.057 6.856,14.058 L6.856,14.058 Z"></path>
                <path d="M7.796,21.245 L4.69,24.351 C3.73,25.309 3.73,26.872 4.69,27.832 C5.65,28.792 7.211,28.792 8.169,27.832 L11.275,24.726 C12.232,23.768 12.238,22.203 11.276,21.244 C10.315,20.282 8.759,20.282 7.796,21.245 L7.796,21.245 Z"></path>
                <path d="M13.541,25.663 L13.541,30.056 C13.539,31.412 14.645,32.517 16.003,32.518 C17.36,32.518 18.465,31.414 18.466,30.057 L18.465,25.664 C18.464,24.31 17.361,23.199 16.003,23.201 C14.643,23.201 13.541,24.301 13.541,25.663 L13.541,25.663 Z"></path>
                <path d="M20.729,24.724 L23.834,27.83 C24.791,28.79 26.355,28.79 27.315,27.83 C28.275,26.87 28.275,25.309 27.315,24.348 L24.209,21.243 C23.252,20.286 21.688,20.279 20.727,21.242 C19.766,22.204 19.766,23.761 20.729,24.724 L20.729,24.724 Z"></path>
            </g>
        </g>
    </g>
</svg>