<?xml version="1.0" encoding="UTF-8" standalone="no"?>
<svg width="33px" height="31px" viewBox="0 0 33 31" version="1.1" xmlns="http://www.w3.org/2000/svg" xmlns:xlink="http://www.w3.org/1999/xlink">
    <!-- Generator: Sketch 40.3 (33839) - http://www.bohemiancoding.com/sketch -->
    <title>star-plain</title>
    <desc>Created with Sketch.</desc>
    <defs></defs>
    <g id="Symbols" stroke="none" stroke-width="1" fill="none" fill-rule="evenodd">
        <g id="star-plain" fill="#1D1D1B">
            <path d="M2.644,14.571 L2.732,14.633 L2.814,14.695 C2.814,14.696 2.816,14.697 2.816,14.697 L8.89,19.051 L6.552,26.145 C6.549,26.145 6.549,26.154 6.549,26.157 L6.528,26.194 L6.509,26.249 C5.235,30.145 6.905,31.373 10.248,28.978 L10.328,28.916 L16.477,24.508 L22.548,28.862 C22.548,28.862 22.55,28.862 22.55,28.863 L22.632,28.925 L22.718,28.987 C26.057,31.374 27.739,30.134 26.453,26.253 L26.432,26.2 L26.42,26.161 C26.42,26.159 26.42,26.156 26.418,26.156 L24.076,19.054 L30.138,14.704 C30.14,14.702 30.146,14.701 30.148,14.698 L30.308,14.583 C33.662,12.187 33.032,10.229 28.912,10.229 L28.636,10.229 L21.16,10.229 L18.806,3.083 L18.791,3.047 C17.504,-0.849 15.395,-0.849 14.105,3.046 L14.085,3.084 L11.731,10.23 L4.252,10.23 L3.981,10.23 C-0.061,10.222 -0.692,12.177 2.644,14.571 L2.644,14.571 Z"></path>
        </g>
    </g>
</svg>