<?xml version="1.0" encoding="UTF-8" standalone="no"?>
<svg width="33px" height="31px" viewBox="0 0 33 31" version="1.1" xmlns="http://www.w3.org/2000/svg" xmlns:xlink="http://www.w3.org/1999/xlink">
    <!-- Generator: Sketch 40.3 (33839) - http://www.bohemiancoding.com/sketch -->
    <title>star-empty</title>
    <desc>Created with Sketch.</desc>
    <defs></defs>
    <g id="Symbols" stroke="none" stroke-width="1" fill="none" fill-rule="evenodd">
        <g id="star-empty" fill="#1D1D1B">
            <path d="M29.031,10.222 L21.277,10.222 L18.925,3.085 L18.907,3.047 C18.261,1.095 17.418,0.116 16.559,0.116 C15.708,0.116 14.871,1.095 14.219,3.046 L14.203,3.083 L11.849,10.222 L4.099,10.222 C-0.005,10.222 -0.63,12.178 2.703,14.576 L2.792,14.638 L2.873,14.7 C2.873,14.701 2.876,14.703 2.876,14.703 L8.948,19.056 L6.601,26.157 C6.599,26.157 6.599,26.16 6.599,26.162 L6.581,26.2 L6.56,26.255 C5.724,28.804 6.158,30.208 7.489,30.208 C8.19,30.208 9.147,29.812 10.301,28.986 L10.383,28.924 L16.536,24.514 L22.605,28.868 C22.605,28.868 22.608,28.868 22.608,28.869 L22.689,28.931 L22.776,28.993 C23.924,29.813 24.88,30.212 25.588,30.212 C26.919,30.212 27.351,28.808 26.514,26.26 L26.493,26.206 L26.477,26.167 C26.477,26.165 26.477,26.162 26.475,26.162 L24.132,19.06 L30.199,14.71 C30.202,14.71 30.205,14.708 30.207,14.704 L30.37,14.591 C33.775,12.18 33.148,10.222 29.031,10.222 L29.031,10.222 Z M22.444,16.604 L20.652,17.884 L21.34,19.987 L23.167,25.529 L18.313,22.052 L16.57,20.801 L14.831,22.052 L9.977,25.529 L11.804,19.987 L12.492,17.884 L10.7,16.604 L5.971,13.219 L14.023,13.219 L14.711,11.157 L16.565,5.528 L18.419,11.156 L19.099,13.218 L27.159,13.218 L22.444,16.604 L22.444,16.604 Z"></path>
        </g>
    </g>
</svg>