<?xml version="1.0" encoding="UTF-8" standalone="no"?>
<svg width="33px" height="27px" viewBox="0 0 33 27" version="1.1" xmlns="http://www.w3.org/2000/svg" xmlns:xlink="http://www.w3.org/1999/xlink">
    <!-- Generator: Sketch 40.3 (33839) - http://www.bohemiancoding.com/sketch -->
    <title>twitter</title>
    <desc>Created with Sketch.</desc>
    <defs></defs>
    <g id="Symbols" stroke="none" stroke-width="1" fill="none" fill-rule="evenodd">
        <g id="twitter" fill="#1D1D1B">
            <path d="M32.685,4.084 C31.951,5.25 30.941,6.334 29.628,7.3 L29.628,7.862 C29.709,12.991 27.138,19.674 21.144,23.452 C18.142,25.348 14.781,26.301 11.044,26.301 C8.021,26.301 5.189,25.613 2.507,24.239 C1.773,23.868 1.278,23.577 1.023,23.385 C0.857,23.245 0.767,23.096 0.767,22.926 C0.767,22.643 1.023,22.389 1.314,22.389 C1.468,22.389 1.722,22.41 2.066,22.422 C2.408,22.452 2.665,22.471 2.837,22.471 C5.149,22.471 7.289,21.879 9.233,20.676 C6.893,20.133 5.004,18.405 4.254,16.118 C4.233,16.038 4.221,15.972 4.221,15.93 C4.221,15.659 4.45,15.409 4.742,15.409 C4.801,15.409 4.885,15.43 4.973,15.44 C5.077,15.461 5.145,15.464 5.178,15.464 C3.148,14.235 1.85,12.018 1.85,9.652 C1.85,9.314 2.162,9.048 2.512,9.048 C2.633,9.048 2.824,9.11 3.116,9.236 C3.399,9.378 3.575,9.46 3.637,9.465 C2.594,8.236 2.065,6.777 2.065,5.144 C2.065,3.988 2.408,2.572 3.003,1.706 C3.112,1.518 3.263,1.435 3.427,1.435 C3.615,1.435 3.771,1.497 3.892,1.644 C4.765,2.582 5.376,3.232 5.769,3.582 C8.566,6.092 12.156,7.627 15.89,7.946 C15.835,7.717 15.818,7.436 15.818,7.116 C15.818,3.345 18.912,0.278 22.718,0.278 C24.572,0.278 26.177,0.924 27.53,2.215 C28.605,1.986 29.801,1.527 31.093,0.819 C31.175,0.767 31.281,0.739 31.364,0.739 C31.658,0.739 31.91,0.989 31.91,1.28 C31.91,1.821 31.098,3.19 30.561,3.801 C30.715,3.748 31.344,3.521 31.809,3.346 C32.032,3.258 32.163,3.232 32.217,3.232 C32.51,3.232 32.762,3.49 32.762,3.773 C32.767,3.901 32.734,3.996 32.685,4.084 L32.685,4.084 Z"></path>
        </g>
    </g>
</svg>