<?xml version="1.0" encoding="UTF-8" standalone="no"?>
<svg width="36px" height="33px" viewBox="0 0 36 33" version="1.1" xmlns="http://www.w3.org/2000/svg" xmlns:xlink="http://www.w3.org/1999/xlink">
    <!-- Generator: Sketch 40.3 (33839) - http://www.bohemiancoding.com/sketch -->
    <title>user</title>
    <desc>Created with Sketch.</desc>
    <defs></defs>
    <g id="Symbols" stroke="none" stroke-width="1" fill="none" fill-rule="evenodd">
        <g id="user" fill="#1D1D1B">
            <path d="M33.99,28.394 C32.636,27.042 27.261,25.704 24.568,24.347 C22.78,23.451 21.88,21.535 21.88,19.845 C21.88,18.987 22.451,18.267 22.973,17.681 C24.371,16.077 25.469,13.159 25.469,9.11 C25.469,3.142 21.881,0.452 17.844,0.452 C13.806,0.452 10.218,3.142 10.218,9.11 C10.218,13.159 11.311,16.083 12.711,17.681 C13.227,18.267 13.807,18.987 13.807,19.845 C13.807,21.533 12.904,23.449 11.119,24.347 C8.431,25.701 3.049,27.042 1.69,28.394 C0.344,29.748 0.344,32.454 0.344,32.454 L17.844,32.454 L35.344,32.454 C35.341,32.445 35.341,29.743 33.99,28.394 L33.99,28.394 Z"></path>
        </g>
    </g>
</svg>