<?xml version="1.0" encoding="UTF-8" standalone="no"?>
<svg width="33px" height="33px" viewBox="0 0 33 33" version="1.1" xmlns="http://www.w3.org/2000/svg" xmlns:xlink="http://www.w3.org/1999/xlink">
    <!-- Generator: Sketch 40.3 (33839) - http://www.bohemiancoding.com/sketch -->
    <title>warning</title>
    <desc>Created with Sketch.</desc>
    <defs></defs>
    <g id="Symbols" stroke="none" stroke-width="1" fill="none" fill-rule="evenodd">
        <g id="warning" fill="#1D1D1B">
            <g id="Shape">
                <path d="M16.281,0.991 C7.427,0.991 0.281,8.137 0.281,16.991 C0.281,25.821 7.427,32.991 16.281,32.991 C25.109,32.991 32.281,25.821 32.281,16.991 C32.281,8.142 25.111,0.991 16.281,0.991 L16.281,0.991 Z M16.281,28.991 C9.667,28.991 4.281,23.606 4.281,16.991 C4.281,10.379 9.667,4.991 16.281,4.991 C22.896,4.991 28.281,10.379 28.281,16.991 C28.281,23.607 22.898,28.991 16.281,28.991 L16.281,28.991 Z"></path>
                <path d="M16.14,7.097 C14.536,7.246 13.361,8.681 13.517,10.285 L14.418,18.619 C14.511,19.557 15.252,20.33 16.229,20.431 C17.333,20.535 18.316,19.737 18.418,18.619 L19.314,10.285 C19.335,10.098 19.335,9.906 19.314,9.723 C19.171,8.115 17.74,6.939 16.14,7.097 L16.14,7.097 Z"></path>
                <path d="M14.651,22.56 C14.191,23.022 13.922,23.669 13.922,24.331 C13.922,24.977 14.193,25.639 14.651,26.1 C15.124,26.574 15.76,26.831 16.422,26.831 C17.084,26.831 17.726,26.56 18.193,26.1 C18.653,25.639 18.922,24.994 18.922,24.331 C18.922,23.677 18.651,23.019 18.193,22.56 C17.263,21.635 15.582,21.635 14.651,22.56 L14.651,22.56 Z"></path>
            </g>
        </g>
    </g>
</svg>