<?xml version="1.0" encoding="UTF-8"?><!DOCTYPE svg PUBLIC "-//W3C//DTD SVG 1.1//EN" "http://www.w3.org/Graphics/SVG/1.1/DTD/svg11.dtd"><svg xmlns="http://www.w3.org/2000/svg"><symbol id="arrow-down" viewBox="0 0 29 33"><title>arrow-down</title><path d="M27.684 19.423a2.084 2.084 0 0 0 0-2.949 2.093 2.093 0 0 0-2.952 0l-8.301 8.301V2.853A2.09 2.09 0 0 0 14.343.766a2.09 2.09 0 0 0-2.087 2.087v21.922l-8.298-8.301a2.093 2.093 0 0 0-2.952 0 2.078 2.078 0 0 0-.612 1.479c0 .53.205 1.063.612 1.479l13.337 13.341 13.341-13.35z" fill-rule="evenodd"/></symbol><symbol id="arrow-left" viewBox="0 0 33 29"><title>arrow-left</title><path d="M14.22 28.102a2.09 2.09 0 0 0 2.951 0 2.093 2.093 0 0 0 0-2.952L8.87 16.849h21.917a2.097 2.097 0 0 0 2.092-2.087c0-1.148-.938-2.09-2.092-2.09H8.87l8.301-8.299a2.092 2.092 0 0 0 0-2.951 2.086 2.086 0 0 0-1.479-.609 2.09 2.09 0 0 0-1.476.609L.876 14.762l13.344 13.34z" fill-rule="evenodd"/></symbol><symbol id="arrow-right" viewBox="0 0 33 29"><title>arrow-right</title><path d="M18.881 1.425a2.092 2.092 0 0 0-2.951 0 2.088 2.088 0 0 0 0 2.952l8.301 8.303H2.308a2.09 2.09 0 0 0-2.087 2.087 2.09 2.09 0 0 0 2.087 2.088H24.23l-8.301 8.303a2.082 2.082 0 0 0 1.476 3.556c.535 0 1.068-.201 1.479-.609l13.341-13.338L18.881 1.425z" fill-rule="evenodd"/></symbol><symbol id="arrow-up" viewBox="0 0 29 33"><title>arrow-up</title><path d="M.887 14.105a2.088 2.088 0 0 0 0 2.951 2.091 2.091 0 0 0 2.952 0l8.301-8.303v21.924c0 1.15.938 2.087 2.088 2.087a2.09 2.09 0 0 0 2.087-2.087V8.753l8.299 8.303a2.09 2.09 0 0 0 2.951 0 2.09 2.09 0 0 0 0-2.957L14.228.759.887 14.105z" fill-rule="evenodd"/></symbol><symbol id="calendar" viewBox="0 0 33 33"><title>calendar</title><g fill-rule="evenodd"><path d="M29.101.353h-26c-1.657 0-3 1.345-3 3v26c0 1.652 1.343 3 3 3h26c1.657 0 3-1.348 3-3v-26a3 3 0 0 0-3-3zm-26 29v-18h26v18h-26z"/><path d="M5.156 13.353h6v6h-6zM13.156 13.353h6v6h-6zM21.156 13.353h6v6h-6zM5.156 21.353h6v6h-6zM13.156 21.353h6v6h-6zM21.156 21.353h6v6h-6z"/></g></symbol><symbol id="chevron-down" viewBox="0 0 33 20"><title>chevron-down</title><path d="M4.237 1.03a2.389 2.389 0 0 0-3.386 0 2.384 2.384 0 0 0 0 3.379l15.297 15.299 15.31-15.299a2.396 2.396 0 0 0 0-3.392 2.402 2.402 0 0 0-3.395 0L16.149 12.93 4.237 1.03z" fill-rule="evenodd"/></symbol><symbol id="chevron-left" viewBox="0 0 21 33"><title>chevron-left</title><path d="M19.434 4.109A2.394 2.394 0 0 0 17.741.022c-.604 0-1.225.231-1.688.701L.753 16.021l15.3 15.305c.936.938 2.45.938 3.386 0a2.395 2.395 0 0 0 0-3.391L7.525 16.021 19.434 4.109z" fill-rule="evenodd"/></symbol><symbol id="chevron-right" viewBox="0 0 20 33"><title>chevron-right</title><path d="M.851 27.934a2.4 2.4 0 0 0 0 3.391c.468.469 1.08.696 1.693.696a2.38 2.38 0 0 0 1.688-.696l15.303-15.303L4.232.722a2.39 2.39 0 0 0-3.386 0 2.389 2.389 0 0 0 0 3.386L12.76 16.022.851 27.934z" fill-rule="evenodd"/></symbol><symbol id="chevron-up" viewBox="0 0 33 20"><title>chevron-up</title><path d="M28.674 19.013a2.388 2.388 0 0 0 3.385 0 2.385 2.385 0 0 0 0-3.379L16.762.334l-15.301 15.3a2.391 2.391 0 0 0 0 3.388 2.39 2.39 0 0 0 3.387 0L16.762 7.108l11.912 11.905z" fill-rule="evenodd"/></symbol><symbol id="close" viewBox="0 0 25 25"><title>close</title><path d="M23.779 19.137l-6.839-6.838 6.838-6.836a3.005 3.005 0 0 0 0-4.271 3.003 3.003 0 0 0-4.271.002l-6.846 6.838-6.839-6.84a3.003 3.003 0 0 0-4.271.002 3.005 3.005 0 0 0 0 4.271l6.839 6.838-6.839 6.846a3.005 3.005 0 0 0 0 4.271c.592.593 1.358.89 2.145.89.771 0 1.552-.297 2.146-.89l6.839-6.84 6.839 6.838a3 3 0 0 0 2.143.89c.771 0 1.554-.295 2.146-.89a3.076 3.076 0 0 0-.03-4.281z" fill-rule="evenodd"/></symbol><symbol id="cloud-down" viewBox="0 0 42 26"><title>cloud-down</title><path d="M41.323 16.065a7.107 7.107 0 0 0-9.194-4.078 3.532 3.532 0 0 1-.214.086A10.39 10.39 0 0 0 21.56.745a10.396 10.396 0 0 0-9.466 6.098 9.537 9.537 0 0 0-5.329.443c-4.914 1.896-7.362 7.417-5.467 12.33a9.528 9.528 0 0 0 8.896 6.106v.021h24.562a7.03 7.03 0 0 0 2.479-.479 7.104 7.104 0 0 0 4.088-9.199zm-15.099-3l-4.628 7.471s-.188.271-.448.271-.447-.271-.447-.271l-4.629-7.471c-.354-.544-.094-.99.584-.99h1.826V8.549h5.334v3.526h1.825c.679-.001.932.446.583.99z" fill-rule="evenodd"/></symbol><symbol id="cloud-up" viewBox="0 0 42 26"><title>cloud-up</title><path d="M41.335 16.065a7.109 7.109 0 0 0-9.195-4.078c-.07.027-.146.062-.211.086.021-.307.041-.617.041-.932C31.97 5.399 27.316.745 21.574.745a10.397 10.397 0 0 0-9.467 6.098 9.535 9.535 0 0 0-5.328.443c-4.914 1.896-7.355 7.417-5.467 12.33a9.529 9.529 0 0 0 8.896 6.106v.021h7.68v-5.729h-2.305c-.854 0-1.188-.562-.729-1.246l5.829-9.41s.229-.335.562-.335c.333 0 .562.335.562.335l5.83 9.41c.445.686.114 1.246-.733 1.246h-2.3v5.729h10.168a7.056 7.056 0 0 0 2.488-.479c3.662-1.412 5.481-5.53 4.075-9.199z" fill-rule="evenodd"/></symbol><symbol id="cloud" viewBox="0 0 42 26"><title>cloud</title><path d="M41.448 16.066a7.1 7.1 0 0 0-9.188-4.079c-.072.028-.146.062-.211.085.021-.307.033-.614.033-.931 0-5.74-4.646-10.396-10.396-10.396a10.393 10.393 0 0 0-9.465 6.098 9.55 9.55 0 0 0-5.33.442C1.978 9.181-.471 14.703 1.425 19.616a9.529 9.529 0 0 0 8.896 6.108v.02h24.562a6.952 6.952 0 0 0 2.479-.479 7.106 7.106 0 0 0 4.086-9.199z" fill-rule="evenodd"/></symbol><symbol id="dribbble" viewBox="0 0 33 33"><title>dribbble</title><path d="M16.177.455C7.316.455.227 7.644.227 16.406c0 8.856 7.089 16.049 15.95 16.049 8.861 0 16.05-7.188 16.05-16.049C32.226 7.649 25.038.455 16.177.455zm13.39 15.953c-1.771-.396-3.438-.688-5.12-.688-1.377 0-2.854.197-4.32.492-.308-.688-.603-1.479-.896-2.166 2.759-1.271 5.521-3.056 7.979-5.119 1.472 2.265 2.357 4.823 2.357 7.481zM16.177 3.117c3.546 0 6.795 1.377 9.256 3.74a29.468 29.468 0 0 1-7.385 4.729 51.28 51.28 0 0 0-5.315-7.978c1.18-.291 2.262-.491 3.444-.491zm-6.105 1.477c2.166 2.562 4.037 5.229 5.521 7.979a31.967 31.967 0 0 1-10.831 1.871H2.991a13.602 13.602 0 0 1 7.081-9.85zm-7.186 12.5c.688 0 1.281.104 1.87.104 4.037 0 8.073-.785 12.013-2.166.197.592.492 1.274.788 1.871-4.527 1.571-8.469 4.521-11.126 8.562-2.168-2.264-3.448-5.219-3.545-8.371zM16.177 29.8c-2.756 0-5.414-.89-7.777-2.461 2.463-3.742 5.908-6.5 10.044-7.877.984 3.053 1.687 6.301 1.979 9.646-1.391.496-2.77.692-4.246.692zm6.795-1.873c-.394-3.146-.983-6.19-1.97-9.146a21.145 21.145 0 0 1 3.438-.295c1.575 0 3.149.188 4.823.59-.779 3.731-3.043 6.979-6.291 8.851z" fill-rule="evenodd"/></symbol><symbol id="facebook" viewBox="0 0 16 33"><title>facebook</title><path d="M14.756 16.692H10.34v16.002H3.722V16.692H.412v-5.521h3.31V7.859C3.722 3.361 5.588.68 10.893.68h4.418v5.521h-2.759c-2.067 0-2.203.771-2.203 2.207l-.009 2.769h5.006l-.59 5.515z" fill-rule="evenodd"/></symbol><symbol id="github" viewBox="0 0 33 33"><title>github</title><path d="M29.774 16.455c0-3.604-1.521-7.061-3.896-9.438-2.375-2.381-5.833-3.896-9.438-3.896-3.604 0-7.042 1.521-9.417 3.896s-3.916 5.834-3.916 9.438c0 5.812 3.812 10.979 9.333 12.709v-3.521c-.75.104-1.229.146-1.438.146-1.521 0-2.583-.688-3.188-2.084a4.927 4.927 0 0 0-.75-1.311c-.062-.082-.208-.207-.438-.396-.23-.188-.417-.354-.583-.5-.188-.146-.271-.271-.271-.334 0-.166.188-.25.584-.25.812 0 1.438.459 1.875 1.021.416.577.812 1.202 1.5 1.604.333.209.729.312 1.166.312.584 0 1.146-.104 1.688-.298.229-.791.667-1.416 1.312-1.854-4.604-.438-6.791-2.062-6.791-6.416 0-1.646.5-3.021 1.521-4.125a5.702 5.702 0 0 1-.292-1.75c0-.812.188-1.562.562-2.271 1.584 0 2.625.521 4.209 1.673 1.062-.25 2.229-.375 3.521-.375 1.104 0 2.167.104 3.188.327 1.583-1.104 2.604-1.625 4.167-1.625.375.709.562 1.459.562 2.271 0 .604-.104 1.166-.292 1.729 1.021 1.146 1.521 2.521 1.521 4.146 0 4.354-2.188 6.021-6.771 6.438.958.646 1.438 1.562 1.438 2.729v4.709c5.522-1.719 9.334-6.888 9.334-12.704zm.522-8.041c1.438 2.459 2.146 5.146 2.146 8.041 0 5.812-3.062 11-7.958 13.854-2.459 1.438-5.146 2.146-8.042 2.146-5.812 0-11-3.061-13.854-7.979C1.15 22.038.442 19.351.442 16.455c0-5.811 3.062-11 7.979-13.854C10.859 1.163 13.546.455 16.442.455c5.812 0 10.999 3.066 13.854 7.959z" fill-rule="evenodd"/></symbol><symbol id="gplus" viewBox="0 0 33 33"><title>gplus</title><path d="M17.277 26.128c0-.537-.135-1.062-.27-1.479-.062-.218-.186-.433-.326-.652a4.779 4.779 0 0 1-.404-.598c-.229-.312-.809-.828-1.039-1.062-.25-.216-1-.771-1.211-.927-.229-.149-1.078-.75-1.229-.853a10.626 10.626 0 0 0-.964-.034c-1.396 0-2.683.146-4.114.612-1.441.461-2.521 1.106-3.211 2.322-.354.6-.521 1.285-.521 2.062 0 1.75 1 3.177 2.48 3.938a10.056 10.056 0 0 0 4.75 1.178c1.52 0 2.885-.312 4.098-1 1.211-.662 1.961-1.891 1.961-3.507zM14.971 9.552c0-1.537-.441-3.349-1.211-4.961-.789-1.612-2.23-2.789-3.924-2.789-2.396 0-3.75 2.039-3.75 4.5 0 1.213.289 2.576.896 3.901.615 1.324 1.404 2.425 2.578 3.099.599.326 1.211.5 1.865.5 2.481 0 3.546-1.69 3.546-4.25zM12.448.414h8.404l-2.596 1.521h-2.604c1.825 1.146 2.864 3.429 2.864 5.679 0 1.896-.674 3.396-1.521 4.309-.425.441-.85.863-1.271 1.229-.846.771-1.521 1.559-1.521 2.479 0 .675.473 1.312 1.15 1.9.325.289.712.6 1.114.924.828.64 1.674 1.427 2.358 2.326.681.924 1.142 2.229 1.142 3.688 0 4.104-3.902 7.938-10.771 7.938-1.521 0-3.06-.229-4.638-.851-1.573-.604-2.807-1.428-3.573-2.821-.388-.693-.572-1.468-.572-2.328 0-1.562.93-3.537 2.562-4.729 1.636-1.188 3.865-1.75 5.771-2.062a23.992 23.992 0 0 1 2.896-.25c-.826-1.062-1.23-2.021-1.23-2.861 0-.311.062-.614.146-.825.068-.211.229-.606.283-.819-.521.059-.964.098-1.354.098-3.826 0-6.961-2.825-6.961-6.61 0-3.601 2.771-6.75 6.326-7.539a17.248 17.248 0 0 1 3.596-.396zM27.51 5.341h4.924v2.461H27.51v4.927h-2.461V7.802h-4.924V5.341h4.924V.416h2.461v4.925z" fill-rule="evenodd"/></symbol><symbol id="heart" viewBox="0 0 33 30"><title>heart</title><path d="M32.431 9.162c0-4.698-3.828-8.516-8.553-8.516a8.55 8.55 0 0 0-7.447 4.338A8.55 8.55 0 0 0 8.984.646C4.261.646.431 4.458.431 9.162c0 2.181.826 4.151 2.18 5.657-.002 0-.008.009-.008.009l11.693 13.78c1.174 1.389 3.098 1.389 4.27 0l11.697-13.78-.01-.009a8.428 8.428 0 0 0 2.178-5.657z" fill-rule="evenodd"/></symbol><symbol id="help" viewBox="0 0 33 33"><title>help</title><g fill-rule="evenodd"><path d="M16.781.378c-8.852 0-16 7.146-16 16 0 8.827 7.148 16 16 16 8.83 0 16-7.173 16-16 0-8.852-7.168-16-16-16zm0 28c-6.616 0-12-5.386-12-12 0-6.617 5.384-12 12-12 6.617 0 12 5.383 12 12 0 6.614-5.381 12-12 12z"/><path d="M20.888 16.24c-.735.631-1.896 1.108-2.205 1.263-.314.168-.314.312-.314.731v.521h-3.981v-1.262c0-.942.104-1.528 1.146-2.104l1.365-.729c.524-.295 1.154-.522 1.154-1.051 0-.521-.524-.772-1.686-.772-1.148 0-2.312.461-3.146.983l-1.05-3.466c.521-.312 2.1-1.264 5.035-1.264 2.938 0 5.036 1.785 5.036 3.99.008 1.798-.627 2.532-1.354 3.16zm-4.523 7.791c-1.524 0-2.582-.799-2.582-2.271s1.058-2.289 2.582-2.289c1.52 0 2.562.815 2.562 2.289.008 1.473-1.042 2.271-2.562 2.271z"/></g></symbol><symbol id="information" viewBox="0 0 33 33"><title>information</title><g fill-rule="evenodd"><path d="M16.712 8.37c-1.439 0-2.4.843-2.4 2.144 0 1.306.961 2.146 2.4 2.146 1.461 0 2.396-.84 2.396-2.146.001-1.301-.935-2.144-2.396-2.144zM14.472 14.015h4.501v10.201h-4.501z"/><path d="M16.712.296c-8.854 0-16 7.146-16 16 0 8.829 7.146 16 16 16 8.829 0 16-7.171 16-16 0-8.852-7.171-16-16-16zm0 28c-6.617 0-12-5.386-12-12 0-6.617 5.383-12 12-12 6.61 0 12 5.383 12 12 0 6.614-5.389 12-12 12z"/></g></symbol><symbol id="list" viewBox="0 0 33 26"><title>list</title><g fill-rule="evenodd"><path d="M11.4 5.865h19.076a2.465 2.465 0 0 0 2.461-2.461A2.464 2.464 0 0 0 30.476.943H11.4a2.46 2.46 0 1 0 0 4.922zM30.476 10.787H11.4a2.467 2.467 0 0 0-2.463 2.461 2.466 2.466 0 0 0 2.463 2.465h19.076a2.463 2.463 0 1 0 0-4.926zM30.476 20.636H11.4a2.468 2.468 0 0 0-2.463 2.462 2.468 2.468 0 0 0 2.463 2.463h19.076a2.461 2.461 0 1 0 0-4.925zM4.476.944H3.4A2.467 2.467 0 0 0 .937 3.405 2.464 2.464 0 0 0 3.4 5.867h1.076a2.465 2.465 0 0 0 2.461-2.462A2.46 2.46 0 0 0 4.476.944zM4.476 10.787H3.4a2.467 2.467 0 0 0-2.463 2.461A2.466 2.466 0 0 0 3.4 15.713h1.076a2.463 2.463 0 1 0 0-4.926zM4.476 20.636H3.4a2.468 2.468 0 0 0-2.463 2.462A2.468 2.468 0 0 0 3.4 25.561h1.076a2.461 2.461 0 1 0 0-4.925z"/></g></symbol><symbol id="mail" viewBox="0 0 33 25"><title>mail</title><g fill-rule="evenodd"><path d="M16.94 14.019L30.251.469a2.689 2.689 0 0 0-.711-.112H2.599c-.248 0-.48.05-.713.112l13.312 13.55c.458.473 1.275.473 1.742 0z"/><path d="M18.758 15.868c-.729.729-1.688 1.143-2.692 1.143a3.726 3.726 0 0 1-2.696-1.143L.122 2.389c-.026.174-.056.354-.056.533v18.857c0 1.418 1.132 2.57 2.521 2.57h26.938c1.396 0 2.525-1.152 2.525-2.57V2.923c0-.188-.021-.359-.062-.533l-13.23 13.478z"/></g></symbol><symbol id="marker" viewBox="0 0 25 33"><title>marker</title><path d="M24.074 12.865c0-1.607-.312-3.174-.938-4.646a11.868 11.868 0 0 0-2.561-3.794 11.873 11.873 0 0 0-3.797-2.562 11.854 11.854 0 0 0-4.646-.938c-1.604 0-3.174.312-4.646.938a11.96 11.96 0 0 0-3.794 2.562A11.937 11.937 0 0 0 1.13 8.219a11.907 11.907 0 0 0-.938 4.646c0 1.609.312 3.174.938 4.646.338.797.756 1.547 1.247 2.246l7.884 12.001c1.028 1.557 2.706 1.557 3.733 0l7.881-12.001c.494-.699.914-1.449 1.25-2.246.638-1.472.949-3.033.949-4.646zm-8.793 3.149a4.416 4.416 0 0 1-3.146 1.303 4.411 4.411 0 0 1-3.146-1.303 4.431 4.431 0 0 1-1.301-3.146c0-1.188.463-2.305 1.301-3.145a4.44 4.44 0 0 1 3.146-1.31c1.188 0 2.31.47 3.146 1.31a4.407 4.407 0 0 1 1.309 3.145c0 1.19-.465 2.303-1.309 3.146z" fill-rule="evenodd"/></symbol><symbol id="menu" viewBox="0 0 33 26"><title>menu</title><g fill-rule="evenodd"><path d="M32.533 3.405a2.466 2.466 0 0 1-2.469 2.462H2.999A2.469 2.469 0 0 1 .534 3.405 2.464 2.464 0 0 1 2.999.944h27.065a2.46 2.46 0 0 1 2.469 2.461zM32.533 13.248a2.468 2.468 0 0 1-2.469 2.465H2.999a2.47 2.47 0 0 1-2.465-2.465 2.467 2.467 0 0 1 2.465-2.461h27.065a2.463 2.463 0 0 1 2.469 2.461zM32.533 23.098a2.47 2.47 0 0 1-2.469 2.463H2.999a2.469 2.469 0 0 1-2.465-2.463 2.465 2.465 0 0 1 2.465-2.462h27.065a2.461 2.461 0 0 1 2.469 2.462z"/></g></symbol><symbol id="ok" viewBox="0 0 33 24"><title>ok</title><path d="M11.531 23.802a3.02 3.02 0 0 1-2.091-.854L.919 14.594a2.864 2.864 0 0 1 0-4.104c1.147-1.133 3.021-1.133 4.186 0l6.438 6.308 15.47-15.147a2.995 2.995 0 0 1 4.188 0 2.867 2.867 0 0 1 0 4.098L13.639 22.955a3.044 3.044 0 0 1-2.108.847z" fill-rule="evenodd"/></symbol><symbol id="plus" viewBox="0 0 31 31"><title>plus</title><path d="M28.668 11.528H19.07v-9.59c0-.937-.757-1.688-1.688-1.688H13.32c-.934 0-1.688.758-1.688 1.688v9.59h-9.59c-.938 0-1.69.757-1.69 1.689v4.059c0 .938.757 1.689 1.69 1.689h9.59v9.592c0 .934.758 1.688 1.688 1.688h4.062a1.69 1.69 0 0 0 1.688-1.688v-9.592h9.598c.938 0 1.688-.757 1.688-1.689v-4.059a1.68 1.68 0 0 0-1.688-1.689z" fill-rule="evenodd"/></symbol><symbol id="search" viewBox="0 0 32 32"><title>search</title><path d="M30.067 24.628l-6.002-6c-.492-.492-1.082-.812-1.701-1.013 2.191-4.354 1.479-9.788-2.156-13.42A11.52 11.52 0 0 0 12.02.798a11.579 11.579 0 0 0-8.207 3.397c-4.531 4.529-4.531 11.877 0 16.408a11.545 11.545 0 0 0 8.207 3.395c1.771 0 3.557-.415 5.184-1.229a4.075 4.075 0 0 0 1.021 1.715l6.004 6a4.115 4.115 0 0 0 2.933 1.213 4.143 4.143 0 0 0 2.938-1.213 4.168 4.168 0 0 0-.033-5.856zM6.531 17.871c-3.016-3.018-3.016-7.924 0-10.938a7.697 7.697 0 0 1 5.479-2.27c2.062 0 4.006.807 5.467 2.27a7.694 7.694 0 0 1 2.268 5.475 7.71 7.71 0 0 1-2.27 5.476 7.684 7.684 0 0 1-5.467 2.268 7.752 7.752 0 0 1-5.477-2.281z" fill-rule="evenodd"/></symbol><symbol id="send" viewBox="0 0 33 30"><title>send</title><g fill-rule="evenodd"><path d="M20.698 6.689c.232-.016.459-.033.688-.037V3.771c0-1.033.579-1.434 1.285-.893l9.686 7.055s.351.281.351.68c0 .396-.351.683-.351.683l-9.686 7.051c-.706.541-1.285.143-1.285-.896v-3.518a11.78 11.78 0 0 0-2.502-.051c-4.24.364-7.827 2.908-9.867 6.521-.111-7.087 4.97-13.136 11.681-13.714z"/><path d="M30.023 19.156a2.277 2.277 0 0 0-2.279 2.281v2.053c0 .662-.538 1.197-1.196 1.197H6.464a1.196 1.196 0 0 1-1.189-1.197V6.73c0-.658.537-1.195 1.189-1.195h4.438a2.277 2.277 0 1 0 0-4.557H6.464A5.761 5.761 0 0 0 .708 6.734v16.757a5.764 5.764 0 0 0 5.756 5.758h20.084a5.764 5.764 0 0 0 5.764-5.758v-2.053a2.296 2.296 0 0 0-2.289-2.282z"/></g></symbol><symbol id="spinner" viewBox="0 0 33 33"><title>spinner</title><g fill-rule="evenodd"><path d="M25.147 18.978h4.394a2.466 2.466 0 0 0 2.462-2.461 2.464 2.464 0 0 0-2.462-2.461h-4.394a2.461 2.461 0 0 0 0 4.922zM24.208 11.791l3.106-3.106a2.466 2.466 0 0 0 0-3.481 2.463 2.463 0 0 0-3.479 0L20.729 8.31a2.46 2.46 0 1 0 3.479 3.481zM18.463 7.372V2.979A2.464 2.464 0 0 0 16.001.518a2.464 2.464 0 0 0-2.462 2.461v4.394a2.468 2.468 0 0 0 2.462 2.463 2.463 2.463 0 0 0 2.462-2.464zM11.274 8.311L8.169 5.205a2.464 2.464 0 0 0-3.481 0c-.96.96-.96 2.521 0 3.48l3.106 3.107a2.466 2.466 0 0 0 3.481.001 2.46 2.46 0 0 0-.001-3.482zM6.856 14.058H2.463A2.468 2.468 0 0 0 0 16.52a2.464 2.464 0 0 0 2.462 2.461h4.394a2.467 2.467 0 0 0 2.463-2.461 2.46 2.46 0 0 0-2.463-2.462zM7.796 21.245L4.69 24.351a2.461 2.461 0 0 0 3.479 3.481l3.106-3.106a2.466 2.466 0 0 0 .001-3.482 2.458 2.458 0 0 0-3.48.001zM13.541 25.663v4.393a2.465 2.465 0 0 0 2.462 2.462 2.466 2.466 0 0 0 2.463-2.461l-.001-4.393a2.467 2.467 0 0 0-2.462-2.463 2.46 2.46 0 0 0-2.462 2.462zM20.729 24.724l3.105 3.106c.957.96 2.521.96 3.481 0s.96-2.521 0-3.482l-3.106-3.105a2.461 2.461 0 0 0-3.48 3.481z"/></g></symbol><symbol id="star-empty" viewBox="0 0 33 31"><title>star-empty</title><path d="M29.031 10.222h-7.754l-2.352-7.137-.018-.038C18.261 1.095 17.418.116 16.559.116c-.851 0-1.688.979-2.34 2.93l-.016.037-2.354 7.139h-7.75c-4.104 0-4.729 1.956-1.396 4.354l.089.062.081.062.003.003 6.072 4.353-2.347 7.101c-.002 0-.002.003-.002.005l-.018.038-.021.055c-.836 2.549-.402 3.953.929 3.953.701 0 1.658-.396 2.812-1.222l.082-.062 6.153-4.41 6.069 4.354.003.001.081.062.087.062c1.148.82 2.104 1.219 2.812 1.219 1.331 0 1.763-1.404.926-3.952l-.021-.054-.016-.039c0-.002 0-.005-.002-.005l-2.343-7.102 6.067-4.35c.003 0 .006-.002.008-.006l.163-.113c3.405-2.411 2.778-4.369-1.339-4.369zm-6.587 6.382l-1.792 1.28.688 2.103 1.827 5.542-4.854-3.477-1.743-1.251-1.739 1.251-4.854 3.477 1.827-5.542.688-2.103-1.792-1.28-4.729-3.385h8.052l.688-2.062 1.854-5.629 1.854 5.628.68 2.062h8.06l-4.715 3.386z" fill-rule="evenodd"/></symbol><symbol id="star-plain" viewBox="0 0 33 31"><title>star-plain</title><path d="M2.644 14.571l.088.062.082.062.002.002 6.074 4.354-2.338 7.094c-.003 0-.003.009-.003.012l-.021.037-.019.055c-1.274 3.896.396 5.124 3.739 2.729l.08-.062 6.149-4.408 6.071 4.354.002.001.082.062.086.062c3.339 2.387 5.021 1.147 3.735-2.734l-.021-.053-.012-.039c0-.002 0-.005-.002-.005l-2.342-7.102 6.062-4.35c.002-.002.008-.003.01-.006l.16-.115c3.354-2.396 2.724-4.354-1.396-4.354H21.16l-2.354-7.146-.015-.036c-1.287-3.896-3.396-3.896-4.686-.001l-.02.038-2.354 7.146h-7.75c-4.042-.008-4.673 1.947-1.337 4.341z" fill-rule="evenodd"/></symbol><symbol id="twitter" viewBox="0 0 33 27"><title>twitter</title><path d="M32.685 4.084c-.734 1.166-1.744 2.25-3.057 3.216v.562c.081 5.129-2.49 11.812-8.484 15.59-3.002 1.896-6.363 2.849-10.1 2.849-3.023 0-5.855-.688-8.537-2.062-.734-.371-1.229-.662-1.484-.854-.166-.14-.256-.289-.256-.459 0-.283.256-.537.547-.537.154 0 .408.021.752.033.342.03.599.049.771.049 2.312 0 4.452-.592 6.396-1.795a6.878 6.878 0 0 1-4.979-4.558.84.84 0 0 1-.033-.188.53.53 0 0 1 .521-.521c.059 0 .143.021.231.031.104.021.172.024.205.024-2.03-1.229-3.328-3.446-3.328-5.812 0-.338.312-.604.662-.604.121 0 .312.062.604.188.283.142.459.224.521.229-1.043-1.229-1.572-2.688-1.572-4.321 0-1.156.343-2.572.938-3.438.109-.188.26-.271.424-.271.188 0 .344.062.465.209.873.938 1.484 1.588 1.877 1.938A17.44 17.44 0 0 0 15.89 7.946a3.682 3.682 0 0 1-.072-.83c0-3.771 3.094-6.838 6.9-6.838 1.854 0 3.459.646 4.812 1.937 1.075-.229 2.271-.688 3.563-1.396a.54.54 0 0 1 .271-.08c.294 0 .546.25.546.541 0 .541-.812 1.91-1.349 2.521.154-.053.783-.28 1.248-.455.223-.088.354-.114.408-.114.293 0 .545.258.545.541a.561.561 0 0 1-.077.311z" fill-rule="evenodd"/></symbol><symbol id="user" viewBox="0 0 36 33"><title>user</title><path d="M33.99 28.394c-1.354-1.352-6.729-2.69-9.422-4.047-1.788-.896-2.688-2.812-2.688-4.502 0-.858.571-1.578 1.093-2.164 1.398-1.604 2.496-4.522 2.496-8.571 0-5.968-3.588-8.658-7.625-8.658-4.038 0-7.626 2.69-7.626 8.658 0 4.049 1.093 6.973 2.493 8.571.516.586 1.096 1.306 1.096 2.164 0 1.688-.903 3.604-2.688 4.502-2.688 1.354-8.07 2.695-9.429 4.047-1.346 1.354-1.346 4.06-1.346 4.06h35c-.003-.009-.003-2.711-1.354-4.06z" fill-rule="evenodd"/></symbol><symbol id="warning" viewBox="0 0 33 33"><title>warning</title><g fill-rule="evenodd"><path d="M16.281.991c-8.854 0-16 7.146-16 16 0 8.83 7.146 16 16 16 8.828 0 16-7.17 16-16 0-8.849-7.17-16-16-16zm0 28c-6.614 0-12-5.385-12-12 0-6.612 5.386-12 12-12 6.615 0 12 5.388 12 12 0 6.616-5.383 12-12 12z"/><path d="M16.14 7.097a2.916 2.916 0 0 0-2.623 3.188l.901 8.334a2.026 2.026 0 0 0 1.811 1.812 2 2 0 0 0 2.189-1.812l.896-8.334a2.515 2.515 0 0 0 0-.562 2.9 2.9 0 0 0-3.174-2.626zM14.651 22.56a2.532 2.532 0 0 0-.729 1.771c0 .646.271 1.308.729 1.769a2.494 2.494 0 0 0 1.771.731c.662 0 1.304-.271 1.771-.731.46-.461.729-1.106.729-1.769a2.55 2.55 0 0 0-.729-1.771c-.93-.925-2.611-.925-3.542 0z"/></g></symbol></svg>